{
  "accessors": [
    {
      "bufferView": 2,
      "componentType": 5126,
      "count": 65532,
      "max": [
        -0.016408000141382217,
        11.246496200561523,
        -0.31119000911712646
      ],
      "min": [
        -2.135878086090088,
        8.67378044128418,
        -2.530369997024536
      ],
      "type": "VEC3"
    },
    {
      "bufferView": 2,
      "byteOffset": 786384,
      "componentType": 5126,
      "count": 65532,
      "max": [
        0.9999845623970032,
        0.9999534487724304,
        0.9997141361236572
      ],
      "min": [
        -0.9999961853027344,
        -0.9999189376831055,
        -0.999989926815033
      ],
      "type": "VEC3"
    },
    {
      "bufferView": 1,
      "componentType": 5126,
      "count": 65532,
      "max": [
        0.9961220026016235,
        1.0
      ],
      "min": [
        0.0,
        0.0
      ],
      "type": "VEC2"
    },
    {
      "bufferView": 0,
      "componentType": 5125,
      "count": 322503,
      "type": "SCALAR"
    },
    {
      "bufferView": 2,
      "byteOffset": 1572768,
      "componentType": 5126,
      "count": 65534,
      "max": [
        0.6443089842796326,
        10.22580337524414,
        0.4735099971294403
      ],
      "min": [
        -2.1310369968414307,
        8.273591041564941,
        -1.6760300397872925
      ],
      "type": "VEC3"
    },
    {
      "bufferView": 2,
      "byteOffset": 2359176,
      "componentType": 5126,
      "count": 65534,
      "max": [
        0.9999152421951294,
        0.9999803900718689,
        0.9999542236328125
      ],
      "min": [
        -0.9999856948852539,
        -0.9999830722808838,
        -0.9999420642852783
      ],
      "type": "VEC3"
    },
    {
      "bufferView": 1,
      "byteOffset": 524256,
      "componentType": 5126,
      "count": 65534,
      "max": [
        0.9959530234336853,
        1.0
      ],
      "min": [
        0.0003279999946244061,
        0.0003100000030826777
      ],
      "type": "VEC2"
    },
    {
      "bufferView": 0,
      "byteOffset": 1290012,
      "componentType": 5125,
      "count": 294006,
      "type": "SCALAR"
    },
    {
      "bufferView": 2,
      "byteOffset": 3145584,
      "componentType": 5126,
      "count": 65532,
      "max": [
        1.664999008178711,
        10.196184158325195,
        1.0555700063705444
      ],
      "min": [
        -2.179456949234009,
        7.545829772949219,
        -1.5973060131072998
      ],
      "type": "VEC3"
    },
    {
      "bufferView": 2,
      "byteOffset": 3931968,
      "componentType": 5126,
      "count": 65532,
      "max": [
        0.9999968409538269,
        0.999862015247345,
        0.9999173879623413
      ],
      "min": [
        -0.9999756217002869,
        -0.9999899864196777,
        -0.9999839067459106
      ],
      "type": "VEC3"
    },
    {
      "bufferView": 1,
      "byteOffset": 1048528,
      "componentType": 5126,
      "count": 65532,
      "max": [
        0.9965590238571167,
        0.9993460178375244
      ],
      "min": [
        0.0,
        0.0024679999332875013
      ],
      "type": "VEC2"
    },
    {
      "bufferView": 0,
      "byteOffset": 2466036,
      "componentType": 5125,
      "count": 285369,
      "type": "SCALAR"
    },
    {
      "bufferView": 2,
      "byteOffset": 4718352,
      "componentType": 5126,
      "count": 65532,
      "max": [
        1.7367769479751587,
        9.810572624206543,
        1.0554829835891724
      ],
      "min": [
        -2.163274049758911,
        7.574127197265625,
        -1.0204910039901733
      ],
      "type": "VEC3"
    },
    {
      "bufferView": 2,
      "byteOffset": 5504736,
      "componentType": 5126,
      "count": 65532,
      "max": [
        0.99994957447052,
        0.9999749064445496,
        0.9999994039535522
      ],
      "min": [
        -0.99997478723526,
        -0.9999936819076538,
        -0.9998946785926819
      ],
      "type": "VEC3"
    },
    {
      "bufferView": 1,
      "byteOffset": 1572784,
      "componentType": 5126,
      "count": 65532,
      "max": [
        0.9934930205345154,
        1.0
      ],
      "min": [
        0.03409099951386452,
        0.006126999855041504
      ],
      "type": "VEC2"
    },
    {
      "bufferView": 0,
      "byteOffset": 3607512,
      "componentType": 5125,
      "count": 320424,
      "type": "SCALAR"
    },
    {
      "bufferView": 2,
      "byteOffset": 6291120,
      "componentType": 5126,
      "count": 65532,
      "max": [
        1.7081379890441895,
        9.488285064697266,
        1.0216399431228638
      ],
      "min": [
        -2.092545986175537,
        7.562164783477783,
        -0.9029480218887329
      ],
      "type": "VEC3"
    },
    {
      "bufferView": 2,
      "byteOffset": 7077504,
      "componentType": 5126,
      "count": 65532,
      "max": [
        0.9998272061347961,
        0.9999719262123108,
        0.9999556541442871
      ],
      "min": [
        -0.9999775290489197,
        -0.9999834299087524,
        -0.9998927712440491
      ],
      "type": "VEC3"
    },
    {
      "bufferView": 1,
      "byteOffset": 2097040,
      "componentType": 5126,
      "count": 65532,
      "max": [
        0.9963510036468506,
        1.0
      ],
      "min": [
        0.0,
        0.0
      ],
      "type": "VEC2"
    },
    {
      "bufferView": 0,
      "byteOffset": 4889208,
      "componentType": 5125,
      "count": 270312,
      "type": "SCALAR"
    },
    {
      "bufferView": 2,
      "byteOffset": 7863888,
      "componentType": 5126,
      "count": 65533,
      "max": [
        1.5760990381240845,
        11.296459197998047,
        1.0834449529647827
      ],
      "min": [
        -2.0994760990142822,
        7.545829772949219,
        -2.4631330966949463
      ],
      "type": "VEC3"
    },
    {
      "bufferView": 2,
      "byteOffset": 8650284,
      "componentType": 5126,
      "count": 65533,
      "max": [
        0.9999610781669617,
        0.9999737739562988,
        0.9999668598175049
      ],
      "min": [
        -0.9998548626899719,
        -0.9999894499778748,
        -0.9999039769172668
      ],
      "type": "VEC3"
    },
    {
      "bufferView": 1,
      "byteOffset": 2621296,
      "componentType": 5126,
      "count": 65533,
      "max": [
        0.9995219707489014,
        1.0
      ],
      "min": [
        0.001307999948039651,
        0.0
      ],
      "type": "VEC2"
    },
    {
      "bufferView": 0,
      "byteOffset": 5970456,
      "componentType": 5125,
      "count": 268203,
      "type": "SCALAR"
    },
    {
      "bufferView": 2,
      "byteOffset": 9436680,
      "componentType": 5126,
      "count": 65532,
      "max": [
        1.7382069826126099,
        9.887020111083984,
        0.811352014541626
      ],
      "min": [
        -2.1553471088409424,
        7.558564186096191,
        -1.306702971458435
      ],
      "type": "VEC3"
    },
    {
      "bufferView": 2,
      "byteOffset": 10223064,
      "componentType": 5126,
      "count": 65532,
      "max": [
        0.9998970031738281,
        0.9999947547912598,
        0.9999994039535522
      ],
      "min": [
        -0.9999731779098511,
        -0.9999894499778748,
        -0.9999877214431763
      ],
      "type": "VEC3"
    },
    {
      "bufferView": 1,
      "byteOffset": 3145560,
      "componentType": 5126,
      "count": 65532,
      "max": [
        0.9971680045127869,
        1.0
      ],
      "min": [
        5.2999999752501026e-05,
        0.0
      ],
      "type": "VEC2"
    },
    {
      "bufferView": 0,
      "byteOffset": 7043268,
      "componentType": 5125,
      "count": 271983,
      "type": "SCALAR"
    },
    {
      "bufferView": 2,
      "byteOffset": 11009448,
      "componentType": 5126,
      "count": 56191,
      "max": [
        1.653857946395874,
        10.097616195678711,
        0.25748199224472046
      ],
      "min": [
        -2.1686809062957764,
        7.904221057891846,
        -1.4802210330963135
      ],
      "type": "VEC3"
    },
    {
      "bufferView": 2,
      "byteOffset": 11683740,
      "componentType": 5126,
      "count": 56191,
      "max": [
        0.9999984502792358,
        0.9999784231185913,
        0.9999880790710449
      ],
      "min": [
        -0.9999614953994751,
        -0.9999983310699463,
        -0.9999650716781616
      ],
      "type": "VEC3"
    },
    {
      "bufferView": 1,
      "byteOffset": 3669816,
      "componentType": 5126,
      "count": 56191,
      "max": [
        0.9986090064048767,
        1.0
      ],
      "min": [
        0.0005750000127591193,
        0.0
      ],
      "type": "VEC2"
    },
    {
      "bufferView": 0,
      "byteOffset": 8131200,
      "componentType": 5125,
      "count": 198228,
      "type": "SCALAR"
    }
  ],
  "asset": {
    "extras": {
      "author": "Science Museum Group (https://sketchfab.com/sciencemuseum)",
      "license": "CC0-1.0 (http://creativecommons.org/publicdomain/zero/1.0/)",
      "source": "https://sketchfab.com/3d-models/model-of-a-human-brain-fc7ae7b989f94c80a50152e71f44e47c",
      "title": "Model of a human brain"
    },
    "generator": "Sketchfab-12.67.0",
    "version": "2.0"
  },
  "bufferViews": [
    {
      "buffer": 0,
      "byteLength": 8924112,
      "name": "floatBufferViews",
      "target": 34963
    },
    {
      "buffer": 0,
      "byteLength": 4119344,
      "byteOffset": 8924112,
      "byteStride": 8,
      "name": "floatBufferViews",
      "target": 34962
    },
    {
      "buffer": 0,
      "byteLength": 12358032,
      "byteOffset": 13043456,
      "byteStride": 12,
      "name": "floatBufferViews",
      "target": 34962
    }
  ],
  "buffers": [
    {
      "byteLength": 25401488,
      "uri": "scene.bin"
    }
  ],
  "images": [
    {
      "uri": "textures/papiermache_brain_baseColor.jpeg"
    }
  ],
  "materials": [
    {
      "doubleSided": true,
      "name": "papiermache_brain",
      "pbrMetallicRoughness": {
        "baseColorTexture": {
          "index": 0
        },
        "metallicFactor": 0.0
      }
    }
  ],
  "meshes": [
    {
      "name": "Object_0",
      "primitives": [
        {
          "attributes": {
            "NORMAL": 1,
            "POSITION": 0,
            "TEXCOORD_0": 2
          },
          "indices": 3,
          "material": 0,
          "mode": 4
        }
      ]
    },
    {
      "name": "Object_1",
      "primitives": [
        {
          "attributes": {
            "NORMAL": 5,
            "POSITION": 4,
            "TEXCOORD_0": 6
          },
          "indices": 7,
          "material": 0,
          "mode": 4
        }
      ]
    },
    {
      "name": "Object_2",
      "primitives": [
        {
          "attributes": {
            "NORMAL": 9,
            "POSITION": 8,
            "TEXCOORD_0": 10
          },
          "indices": 11,
          "material": 0,
          "mode": 4
        }
      ]
    },
    {
      "name": "Object_3",
      "primitives": [
        {
          "attributes": {
            "NORMAL": 13,
            "POSITION": 12,
            "TEXCOORD_0": 14
          },
          "indices": 15,
          "material": 0,
          "mode": 4
        }
      ]
    },
    {
      "name": "Object_4",
      "primitives": [
        {
          "attributes": {
            "NORMAL": 17,
            "POSITION": 16,
            "TEXCOORD_0": 18
          },
          "indices": 19,
          "material": 0,
          "mode": 4
        }
      ]
    },
    {
      "name": "Object_5",
      "primitives": [
        {
          "attributes": {
            "NORMAL": 21,
            "POSITION": 20,
            "TEXCOORD_0": 22
          },
          "indices": 23,
          "material": 0,
          "mode": 4
        }
      ]
    },
    {
      "name": "Object_6",
      "primitives": [
        {
          "attributes": {
            "NORMAL": 25,
            "POSITION": 24,
            "TEXCOORD_0": 26
          },
          "indices": 27,
          "material": 0,
          "mode": 4
        }
      ]
    },
    {
      "name": "Object_7",
      "primitives": [
        {
          "attributes": {
            "NORMAL": 29,
            "POSITION": 28,
            "TEXCOORD_0": 30
          },
          "indices": 31,
          "material": 0,
          "mode": 4
        }
      ]
    }
  ],
  "nodes": [
    {
      "children": [
        1
      ],
      "matrix": [
        0.9862086176872253,
        0.06323920190334323,
        -0.15294890105724332,
        0.0,
        -0.06863061338663101,
        -0.6846695542335509,
        -0.7256152033805848,
        0.0,
        -0.15060678124427795,
        0.7261049747467042,
        -0.6708868741989135,
        0.0,
        0.4997321367263794,
        5.868118286132813,
        -2.646806716918944,
        1.0
      ],
      "name": "Sketchfab_model"
    },
    {
      "children": [
        2,
        3,
        4,
        5,
        6,
        7,
        8,
        9
      ],
      "name": "papiermache_brain.obj.cleaner.materialmerger.gles"
    },
    {
      "mesh": 0,
      "name": "Object_2"
    },
    {
      "mesh": 1,
      "name": "Object_3"
    },
    {
      "mesh": 2,
      "name": "Object_4"
    },
    {
      "mesh": 3,
      "name": "Object_5"
    },
    {
      "mesh": 4,
      "name": "Object_6"
    },
    {
      "mesh": 5,
      "name": "Object_7"
    },
    {
      "mesh": 6,
      "name": "Object_8"
    },
    {
      "mesh": 7,
      "name": "Object_9"
    }
  ],
  "samplers": [
    {
      "magFilter": 9729,
      "minFilter": 9987,
      "wrapS": 10497,
      "wrapT": 10497
    }
  ],
  "scene": 0,
  "scenes": [
    {
      "name": "Sketchfab_Scene",
      "nodes": [
        0
      ]
    }
  ],
  "textures": [
    {
      "sampler": 0,
      "source": 0
    }
  ]
}
